<svg xmlns="http://www.w3.org/2000/svg" xml:space="preserve" viewBox="0 0 588.88 189.96">
    <path fill="none" d="M0 0h588.88v189.96H0z"/>
    <path fill="#FF3E00" d="M155 56.96c-9.55-13.75-28.56-17.78-42.22-9.11L88.69 63.27c-6.57 4.12-11.13 10.86-12.44 18.48-1.14 6.4-.18 12.97 2.89 18.66-2.1 3.15-3.5 6.66-4.12 10.34-1.4 7.79.44 15.85 5 22.25 9.63 13.75 28.55 17.78 42.22 9.11l24.09-15.33c6.57-4.12 11.12-10.86 12.44-18.49 1.13-6.39.17-12.96-2.89-18.65 2.1-3.16 3.5-6.66 4.11-10.34 1.49-7.88-.35-15.94-4.99-22.34z"/>
    <path fill="white" d="M110.41 134.31c-7.79 2.02-15.94-1.05-20.5-7.62-2.8-3.85-3.85-8.67-3.06-13.4.17-.79.35-1.49.52-2.28l.44-1.4 1.23.87c2.89 2.11 6.04 3.68 9.46 4.73l.88.27-.09.87c-.09 1.23.26 2.54.96 3.6 1.4 2.01 3.86 2.97 6.22 2.36.53-.17 1.05-.35 1.49-.61l24-15.33c1.23-.79 2.02-1.93 2.28-3.33.26-1.4-.09-2.89-.88-4.03-1.4-2.02-3.85-2.89-6.22-2.28-.52.18-1.05.35-1.49.62l-9.19 5.86c-1.49.97-3.16 1.67-4.91 2.11-7.79 2.01-15.94-1.05-20.5-7.62-2.71-3.86-3.85-8.68-2.97-13.41.78-4.55 3.59-8.67 7.53-11.12l24.09-15.33c1.49-.96 3.15-1.67 4.9-2.19 7.8-2.02 15.95 1.05 20.5 7.62 2.8 3.85 3.85 8.67 3.07 13.4-.18.79-.35 1.49-.62 2.28l-.43 1.4-1.23-.87c-2.89-2.11-6.05-3.68-9.46-4.73l-.88-.27.09-.87c.09-1.23-.26-2.54-.96-3.6-1.41-2.01-3.86-2.89-6.22-2.27-.53.17-1.05.35-1.49.61l-24 15.33c-1.23.79-2.02 1.93-2.28 3.33-.26 1.4.09 2.89.88 4.03 1.4 2.01 3.85 2.89 6.21 2.28.53-.18 1.06-.35 1.49-.62l9.2-5.87c1.49-.96 3.15-1.66 4.91-2.19 7.79-2.01 15.94 1.06 20.49 7.62 2.81 3.86 3.86 8.68 3.07 13.41-.79 4.55-3.59 8.67-7.53 11.12l-24.09 15.33c-1.49.96-3.16 1.67-4.91 2.19z" />
    <path fill="#FF3E00" d="m175.1 106.44 12.82-1.28c.77 4.29 2.32 7.43 4.67 9.45 2.34 2.01 5.51 3.01 9.5 3.01 4.21 0 7.39-.89 9.53-2.68 2.14-1.79 3.21-3.88 3.21-6.27 0-1.55-.45-2.85-1.35-3.94-.89-1.08-2.47-2.02-4.71-2.81-1.53-.54-5.02-1.48-10.47-2.85-7.02-1.76-11.94-3.91-14.78-6.47-3.98-3.59-5.97-7.97-5.97-13.14 0-3.32.94-6.44 2.81-9.33 1.87-2.9 4.57-5.1 8.1-6.61 3.53-1.52 7.78-2.27 12.78-2.27 8.14 0 14.28 1.8 18.38 5.42 4.12 3.62 6.28 8.44 6.49 14.49l-13.19.45c-.56-3.36-1.75-5.77-3.59-7.24-1.83-1.47-4.59-2.21-8.26-2.21-3.79 0-6.76.79-8.89 2.36-1.38 1.02-2.08 2.37-2.08 4.06 0 1.55.65 2.87 1.96 3.96 1.65 1.41 5.66 2.86 12.04 4.38 6.38 1.5 11.1 3.07 14.14 4.68 3.06 1.62 5.46 3.82 7.19 6.62 1.72 2.81 2.59 6.26 2.59 10.37 0 3.73-1.03 7.23-3.11 10.49-2.07 3.26-5 5.68-8.79 7.26-3.79 1.59-8.52 2.38-14.17 2.38-8.23 0-14.55-1.9-18.96-5.7-4.41-3.79-7.03-9.32-7.89-16.58zm80.76 21.09-23.29-65.1h14.24l16.54 48.19 15.86-48.19h14.01l-23.16 65.1h-14.2zm43.99 0v-65.1h48.2v11h-35.01v14.46h32.55v11h-32.55v17.64h36.28v11h-49.47zm61.02 0V62.97h13.18v53.56h32.65v11h-45.83zm63.07 0v-54.1h-19.27v-11h51.65v11h-19.19v54.1h-13.19zm40.91 0v-65.1h48.19v11h-35.01v14.46h32.56v11h-32.56v17.64h36.28v11h-49.46z"/>
</svg>